<svg width="16" height="13" viewBox="0 0 16 13" xmlns="http://www.w3.org/2000/svg">
    <g fill="none" fill-rule="evenodd">
        <path d="M.985 1.986v.212c0 2.27.003 4.54-.001 6.81-.001.513.16.943.571 1.265.272.214.586.3.927.307.65.013 1.292.08 1.923.243.802.208 1.542.541 2.175 1.088.038.033.084.057.148.101-.535-.073-1.02-.156-1.508-.204a12.122 12.122 0 0 0-2.777.06c-.57.076-1.134.189-1.7.288-.445.077-.742-.166-.742-.618V2.614c0-.398.227-.624.626-.628h.358zM2.521 0c.35.03.702.047 1.05.095 1.246.171 2.384.588 3.28 1.51.216.222.4.477.576.732a.653.653 0 0 1 .095.352c.005 2.933.004 5.867.004 8.8 0 .015-.005.03-.011.073-.051-.046-.092-.08-.13-.117-.907-.875-2.007-1.365-3.231-1.579-.554-.096-1.122-.12-1.684-.165-.378-.03-.601-.25-.601-.631V.643c0-.351.13-.507.527-.643h.125zm13.411 2.426v9.298c-.197.416-.377.507-.828.41-1.385-.298-2.784-.444-4.2-.342-.55.04-1.097.137-1.646.207.07-.06.148-.135.232-.202a5.131 5.131 0 0 1 2.304-1.027c.553-.101 1.118-.148 1.68-.186.599-.041 1.047-.293 1.325-.83.123-.235.148-.492.148-.753V2.01c.553-.07.792-.025.985.415zM13.536 0c.435.15.528.281.528.752v8.24c0 .49-.206.7-.695.709-1.13.022-2.226.209-3.26.684a5.404 5.404 0 0 0-1.538 1.04c-.043.042-.066.105-.1.158l-.065-.041v-.177c0-2.799.008-5.597-.009-8.396-.002-.418.14-.735.39-1.042C9.574.961 10.615.434 11.811.194c.465-.093.944-.115 1.417-.17L13.412 0h.124z" fill="#fff"/>
    </g>
</svg>
