<svg width="16" height="11" viewBox="0 0 16 11" xmlns="http://www.w3.org/2000/svg">
    <path d="m5.822.011.148.146c-2.43.58-3.532 1.666-3.532 1.666s.295-.144.81-.364C6.52.17 10.095.265 13.404 1.894c0 0-1.104-1.015-3.385-1.665L10.22.03c.316.002 1.984.06 3.77 1.366 0 0 1.998 3.413 1.998 7.607-.006-.008-.023.003-.05.028l-.071.07c-.371.382-1.605 1.717-4.138 1.772 0 0-.512-.579-.876-1.084 1.766-.507 2.427-1.521 2.427-1.521-.58.365-1.108.582-1.537.799-.66.29-1.321.433-1.981.58-2.765.448-4.456-.164-5.958-.777l-.388-.16a54.02 54.02 0 0 0-.191-.078l-.567-.288s.66 1.014 2.356 1.521l-.19.22c-.373.442-.697.866-.697.866C1.11 10.879.008 8.994.008 8.994c0-4.2 1.987-7.607 1.987-7.607C3.716.134 5.328.02 5.728.011h.094zm4.637 4.783v.003c-.768 0-1.396.648-1.398 1.45 0 .795.627 1.446 1.398 1.446.77 0 1.397-.65 1.397-1.452 0-.797-.624-1.447-1.397-1.447zm-5 0-.004.003c-.77 0-1.398.648-1.398 1.45 0 .795.627 1.446 1.398 1.446.77 0 1.397-.65 1.397-1.452 0-.797-.623-1.447-1.393-1.447z" fill="#fff" fill-rule="nonzero"/>
</svg>
