<svg width="18" height="18" viewBox="0 0 18 18" xmlns="http://www.w3.org/2000/svg">
    <path d="M9.004 12.722c.129 0 .258.006.386-.002.098-.007.197-.027.294-.05 1.333-.309 2.222-1.138 2.766-2.368a2.87 2.87 0 0 0 .098-.263c.026-.078.005-.115-.083-.078l-.098.04c-.923.357-1.842.403-2.757-.028-.414-.195-.798-.442-1.19-.675-.473-.281-.972-.46-1.532-.406-.461.043-.884.211-1.294.415-.277.137-.276.139-.211.444.355 1.673 1.942 2.981 3.62 2.97M5.375 8.235l.231-.093c.86-.34 1.728-.446 2.616-.114.485.182.927.448 1.357.73.852.558 1.721.591 2.63.163.543-.255.544-.248.399-.842-.317-1.294-1.144-2.11-2.378-2.547-.39-.139-.486-.276-.486-.685.002-1.212 0-2.424.004-3.636 0-.12-.025-.162-.152-.16-.38.01-.762.012-1.142 0-.154-.005-.194.034-.193.191.007 1.23.004 2.46.003 3.69 0 .297-.122.468-.399.571-.049.018-.1.033-.149.051-.806.293-1.465.772-1.912 1.518-.211.352-.355.73-.429 1.163M7.2 3.906h.006c0-.176-.01-.353.003-.527.01-.154-.024-.19-.178-.134a6.475 6.475 0 0 0-1.51.773c-.323.225-.55.205-.826-.07-.175-.172-.347-.348-.521-.522a.53.53 0 0 0-.838.022.512.512 0 0 0 .043.662c.2.214.416.413.62.623.214.223.235.46.07.718-.073.113-.153.222-.224.336a6.06 6.06 0 0 0-.826 2.165c-.063.369-.249.518-.628.518-.252 0-.504-.002-.756.001-.333.004-.58.236-.574.535.006.295.248.516.573.52.258.002.515-.002.773-.001.356 0 .546.15.608.501.159.908.507 1.735 1.032 2.49.198.285.173.52-.074.77-.176.18-.356.356-.533.536-.248.25-.27.56-.059.78.22.228.539.216.793-.032.197-.193.387-.393.586-.582.205-.195.435-.215.674-.067.13.08.253.169.383.248.665.408 1.38.68 2.15.816.361.063.51.25.51.618.002.257-.003.515 0 .773.004.322.233.565.526.566.294 0 .524-.242.528-.564.004-.258 0-.516.001-.774 0-.37.147-.556.509-.619a6.119 6.119 0 0 0 2.473-1.025c.293-.204.527-.18.785.074.184.18.362.367.547.546.247.239.566.246.78.025.208-.214.192-.529-.043-.768-.184-.189-.375-.37-.559-.56-.236-.243-.256-.476-.065-.757a6.09 6.09 0 0 0 1.03-2.472c.063-.373.249-.521.626-.522.252 0 .504.002.756 0 .334-.004.581-.234.577-.533-.005-.295-.246-.518-.571-.522-.264-.003-.527.002-.79 0-.337-.002-.528-.149-.587-.482a6.314 6.314 0 0 0-1.046-2.522c-.19-.274-.164-.505.068-.742.188-.193.382-.38.57-.573.231-.24.24-.558.025-.768-.219-.213-.526-.204-.768.03-.173.166-.34.338-.51.508-.31.31-.519.329-.88.077a6.39 6.39 0 0 0-1.514-.764c-.12-.043-.147-.014-.144.107.007.334.017.669-.002 1.002-.01.198.051.29.238.372 2.08.92 2.93 2.916 2.698 4.855-.137 1.146-.672 2.112-1.511 2.898-1.195 1.118-2.6 1.568-4.217 1.214-2.218-.484-3.99-2.771-3.754-5.108.166-1.648.936-2.886 2.381-3.703.186-.105.468-.122.548-.307.081-.187.018-.437.018-.66M7.036 0h3.937c.008.008.014.02.023.024.273.135.385.308.363.559-.022.237-.18.403-.472.468-.086.019-.082.063-.082.122-.001.27.001.539-.003.808-.002.088.035.116.117.14.632.18 1.236.427 1.793.78.076.048.12.037.178-.025.1-.107.204-.21.312-.308a1.585 1.585 0 0 1 1.846-.181 1.59 1.59 0 0 1 .748 1.698c-.088.419-.338.727-.642 1-.095.084-.094.146-.03.248.325.519.555 1.08.734 1.663.042.138.022.333.135.4.11.064.285.018.43.021.684.016 1.16.349 1.45.957.057.12.087.252.13.378v.492c-.013.039-.028.076-.038.115-.161.596-.535.987-1.125 1.169-.246.076-.5.052-.75.049-.095-.001-.135.031-.156.118a6.834 6.834 0 0 1-.834 2.016c-.041.067-.04.11.019.164.11.104.218.213.32.326.45.503.52 1.26.175 1.847a1.586 1.586 0 0 1-1.701.741c-.42-.088-.725-.342-1-.645-.077-.085-.135-.092-.233-.03a6.668 6.668 0 0 1-1.68.737c-.134.039-.324.04-.387.129-.07.1-.026.28-.027.426-.005.741-.494 1.376-1.193 1.547a1.599 1.599 0 0 1-1.813-.842c-.162-.316-.17-.653-.154-.993.006-.124-.036-.171-.153-.199a6.745 6.745 0 0 1-1.616-.617c-.15-.08-.298-.231-.443-.228-.15.004-.242.217-.372.323-.014.011-.026.024-.04.036a1.587 1.587 0 0 1-1.846.174 1.59 1.59 0 0 1-.743-1.701c.088-.413.333-.716.633-.986.096-.085.105-.15.036-.261a6.728 6.728 0 0 1-.727-1.647c-.042-.14-.039-.339-.132-.405-.103-.072-.292-.026-.443-.027A1.59 1.59 0 0 1 .013 9.197c-.102-.766.388-1.5 1.14-1.722.236-.07.474-.062.713-.054.135.004.189-.034.221-.17.131-.554.336-1.082.603-1.584.082-.155.244-.31.237-.458-.007-.161-.225-.263-.345-.397a1.594 1.594 0 0 1-.113-1.98 1.588 1.588 0 0 1 1.94-.523c.282.126.489.34.697.553.057.057.099.1.19.041a6.486 6.486 0 0 1 1.793-.78c.093-.025.12-.068.118-.158a20.308 20.308 0 0 1-.002-.756c.002-.1-.016-.143-.134-.167a.524.524 0 0 1-.314-.838C6.831.107 6.94.062 7.036 0" fill="#FFF" fill-rule="evenodd"/>
</svg>
