<svg width="108" height="39" viewBox="0 0 108 39" fill="none" xmlns="http://www.w3.org/2000/svg">
<g clip-path="url(#clip0_376_115)">
<path d="M56.3401 29.1801V16.1701H52.3401V12.6401H56.3401L57.2001 5.62012H60.5401V12.6401H70.3501V16.1701H60.5401V29.2801C60.5401 31.8801 61.4001 33.1101 63.3701 33.1101C65.3401 33.1101 66.7101 31.5901 68.0701 28.6401L71.5101 30.2101C69.8401 34.1401 66.8101 36.7901 63.2201 36.7901C58.6701 36.7901 56.3401 34.3801 56.3401 29.1801Z" fill="white"/>
<path d="M98.5899 30.0201C96.6699 33.7001 93.2799 36.8001 87.5199 36.8001C80.3899 36.8001 75.1299 31.6901 75.1299 24.4301C75.1299 17.1701 80.2299 12.0601 87.1099 12.0601C93.9899 12.0601 98.3299 16.8701 98.3299 24.0401C98.3299 24.4801 98.3299 25.0701 98.2799 25.3701H79.5199C79.7699 30.2301 82.6999 33.2801 87.5099 33.2801C91.4099 33.2801 93.6799 31.3201 95.3499 28.0701L98.5899 30.0301V30.0201ZM79.6299 22.0601H93.9899C93.6399 17.8401 91.3099 15.5301 87.0599 15.5301C82.8099 15.5301 80.1799 17.9901 79.6299 22.0601Z" fill="white"/>
<path d="M43.8899 13.1C43.0999 13.1 42.4499 12.87 41.9199 12.4C41.4199 11.91 41.1699 11.3 41.1699 10.57C41.1699 9.84004 41.4199 9.25004 41.9199 8.78004C42.4399 8.29004 43.0999 8.04004 43.8899 8.04004C44.6799 8.04004 45.3199 8.29004 45.8199 8.78004C46.3499 9.25004 46.6099 9.84004 46.6099 10.57C46.6099 11.3 46.3499 11.9 45.8199 12.4C45.3199 12.87 44.6799 13.1 43.8899 13.1ZM41.7999 36.03V16.76H45.9699V36.04H41.7999V36.03Z" fill="white"/>
<path d="M105.21 37.6298C104.42 37.6298 103.77 37.3998 103.24 36.9298C102.74 36.4398 102.49 35.8298 102.49 35.0998C102.49 34.3698 102.74 33.7798 103.24 33.3098C103.76 32.8198 104.42 32.5698 105.21 32.5698C106 32.5698 106.64 32.8198 107.14 33.3098C107.67 33.7798 107.93 34.3698 107.93 35.0998C107.93 35.8298 107.67 36.4298 107.14 36.9298C106.64 37.3998 106 37.6298 105.21 37.6298Z" fill="#E85516"/>
<path fill-rule="evenodd" clip-rule="evenodd" d="M28.85 10.9802C29.32 10.3802 29.82 9.81021 30.34 9.29021C32.9701 6.62021 36.14 5.06021 39.82 5.19021V0.000212966C34.42 -0.129787 29.96 2.24021 26.59 5.66021C26.39 5.86021 26.1901 6.07021 26 6.28021C23.3 2.83021 19.53 0.200213 14.66 0.010213C9.45005 -0.189787 5.97005 2.70021 3.84005 6.51021C1.77005 10.2002 0.80005 14.9802 0.35005 19.4802C-0.09995 24.0302 -0.03995 28.5702 0.12005 31.9402C0.20005 33.6302 0.32005 35.0402 0.41005 36.0302H5.68005C5.67005 35.8902 5.65005 35.7402 5.64005 35.5702C5.55005 34.6302 5.45005 33.2902 5.37005 31.6802C5.21005 28.4502 5.16005 24.1902 5.58005 19.9802C6.01005 15.7202 6.89005 11.7802 8.44005 9.01021C9.92005 6.37021 11.79 5.08021 14.46 5.18021C17.3801 5.29021 19.8701 6.86021 21.9401 9.57021C22.2101 9.93021 22.47 10.3002 22.72 10.6802C21.3 13.0302 20.2001 15.5702 19.41 18.0902C18.01 22.5302 17.51 27.1502 18.16 30.8202C18.48 32.6502 19.13 34.4502 20.3 35.8402C21.54 37.3102 23.2901 38.2302 25.41 38.2302C27.53 38.2302 29.01 37.1502 30.0301 35.7702C31 34.4502 31.58 32.7702 31.92 31.0502C32.6 27.5802 32.42 23.1402 31.5 18.8102C30.9401 16.1702 30.0701 13.4702 28.8701 10.9702L28.85 10.9802ZM26.74 30.0902C26.48 31.4202 26.1101 32.2702 25.7701 32.7402C25.6101 32.9502 25.5 33.0302 25.46 33.0502C25.44 33.0602 25.43 33.0702 25.39 33.0702C24.94 33.0702 24.63 32.9302 24.33 32.5602C23.9501 32.1102 23.56 31.2802 23.32 29.9602C22.8601 27.3302 23.18 23.5602 24.41 19.6502C24.72 18.6602 25.08 17.6902 25.49 16.7302C25.82 17.7602 26.1 18.8302 26.33 19.9002C27.15 23.7502 27.24 27.4702 26.73 30.0902H26.74Z" fill="url(#paint0_linear_376_115)"/>
</g>
<defs>
<linearGradient id="paint0_linear_376_115" x1="34.43" y1="19.2902" x2="-0.67995" y2="16.3902" gradientUnits="userSpaceOnUse">
<stop stop-color="#E8A117"/>
<stop offset="1" stop-color="#E85516"/>
</linearGradient>
<clipPath id="clip0_376_115">
<rect width="107.93" height="38.24" fill="white"/>
</clipPath>
</defs>
</svg>
